<mxfile host="Electron" agent="Mozilla/5.0 (Windows NT 10.0; Win64; x64) AppleWebKit/537.36 (KHTML, like Gecko) draw.io/26.0.9 Chrome/128.0.6613.186 Electron/32.2.5 Safari/537.36" version="26.0.9">
  <diagram id="Ht1M8jgEwFfnCIfOTk4-" name="Page-1">
    <mxGraphModel dx="1541" dy="2931" grid="1" gridSize="10" guides="1" tooltips="1" connect="1" arrows="1" fold="1" page="1" pageScale="1" pageWidth="1600" pageHeight="1600" math="0" shadow="0">
      <root>
        <mxCell id="0" />
        <mxCell id="1" parent="0" />
        <mxCell id="8qdUluI_qNk1tddgaQVU-76" value="&lt;font style=&quot;color: rgb(255, 255, 255);&quot;&gt;Your AWS Account&lt;/font&gt;" style="rounded=0;whiteSpace=wrap;html=1;labelPosition=center;verticalLabelPosition=middle;align=left;verticalAlign=top;horizontal=1;spacingLeft=26;spacingTop=0;spacing=3;fillColor=default;fontColor=#000000;strokeColor=#B09500;sketch=1;curveFitting=1;jiggle=2;strokeWidth=3;" vertex="1" parent="1">
          <mxGeometry x="560" y="-1203" width="392" height="360" as="geometry" />
        </mxCell>
        <mxCell id="8qdUluI_qNk1tddgaQVU-65" value="&lt;font&gt;GitHub Actions&lt;/font&gt;" style="rounded=0;whiteSpace=wrap;html=1;labelPosition=center;verticalLabelPosition=middle;align=left;verticalAlign=top;horizontal=1;spacingLeft=26;spacingTop=0;spacing=3;fillColor=default;fontColor=default;strokeColor=#666666;sketch=1;curveFitting=1;jiggle=2;strokeWidth=3;" vertex="1" parent="1">
          <mxGeometry x="320" y="-1201" width="163" height="360" as="geometry" />
        </mxCell>
        <mxCell id="8qdUluI_qNk1tddgaQVU-71" style="edgeStyle=orthogonalEdgeStyle;rounded=0;orthogonalLoop=1;jettySize=auto;html=1;endArrow=block;endFill=1;strokeWidth=3;strokeColor=#FF8000;sketch=1;curveFitting=1;jiggle=2;" edge="1" parent="1" target="8qdUluI_qNk1tddgaQVU-64">
          <mxGeometry relative="1" as="geometry">
            <mxPoint x="440" y="-1006" as="sourcePoint" />
            <mxPoint x="605" y="-914" as="targetPoint" />
            <Array as="points">
              <mxPoint x="523" y="-1006" />
              <mxPoint x="523" y="-914" />
            </Array>
          </mxGeometry>
        </mxCell>
        <mxCell id="8qdUluI_qNk1tddgaQVU-72" style="edgeStyle=orthogonalEdgeStyle;rounded=0;orthogonalLoop=1;jettySize=auto;html=1;endArrow=block;endFill=1;strokeWidth=3;strokeColor=#FF8000;sketch=1;curveFitting=1;jiggle=2;" edge="1" parent="1" target="8qdUluI_qNk1tddgaQVU-63">
          <mxGeometry relative="1" as="geometry">
            <mxPoint x="440" y="-1006" as="sourcePoint" />
            <mxPoint x="605" y="-1006" as="targetPoint" />
            <Array as="points" />
          </mxGeometry>
        </mxCell>
        <mxCell id="8qdUluI_qNk1tddgaQVU-73" style="edgeStyle=orthogonalEdgeStyle;rounded=0;orthogonalLoop=1;jettySize=auto;html=1;endArrow=block;endFill=1;strokeWidth=3;strokeColor=#FF8000;sketch=1;curveFitting=1;jiggle=2;" edge="1" parent="1" target="8qdUluI_qNk1tddgaQVU-62">
          <mxGeometry relative="1" as="geometry">
            <mxPoint x="440" y="-1006" as="sourcePoint" />
            <mxPoint x="605" y="-1112" as="targetPoint" />
            <Array as="points">
              <mxPoint x="523" y="-1006" />
              <mxPoint x="523" y="-1112" />
            </Array>
          </mxGeometry>
        </mxCell>
        <mxCell id="8qdUluI_qNk1tddgaQVU-74" value="&lt;span&gt;&lt;font style=&quot;font-size: 16px;&quot;&gt;Runner&lt;/font&gt;&lt;/span&gt;" style="outlineConnect=0;dashed=0;verticalLabelPosition=middle;verticalAlign=middle;align=center;html=1;shape=mxgraph.aws3.instance;fillColor=#647687;sketch=1;curveFitting=1;jiggle=2;fillStyle=zigzag;fontColor=#ffffff;strokeColor=#314354;labelPosition=center;fontStyle=1" vertex="1" parent="1">
          <mxGeometry x="353" y="-1051" width="90" height="90" as="geometry" />
        </mxCell>
        <mxCell id="8qdUluI_qNk1tddgaQVU-75" value="" style="dashed=0;outlineConnect=0;html=1;align=center;labelPosition=center;verticalLabelPosition=bottom;verticalAlign=top;shape=mxgraph.weblogos.github;strokeColor=none;fillColor=none;fontColor=#FFFFFF;aspect=fixed;" vertex="1" parent="1">
          <mxGeometry x="326" y="-1197" width="20" height="20" as="geometry" />
        </mxCell>
        <mxCell id="8qdUluI_qNk1tddgaQVU-62" value="" style="outlineConnect=0;dashed=0;verticalLabelPosition=bottom;verticalAlign=top;align=center;html=1;shape=mxgraph.aws3.bucket;fillColor=#e3c800;sketch=1;curveFitting=1;jiggle=2;strokeColor=#B09500;fontColor=#000000;fillStyle=zigzag;" vertex="1" parent="1">
          <mxGeometry x="841" y="-1151" width="80" height="80" as="geometry" />
        </mxCell>
        <mxCell id="8qdUluI_qNk1tddgaQVU-63" value="" style="outlineConnect=0;dashed=0;verticalLabelPosition=bottom;verticalAlign=top;align=center;html=1;shape=mxgraph.aws3.generic_database;fillColor=#7D7C7C;gradientColor=none;sketch=1;curveFitting=1;jiggle=2;fillStyle=zigzag;" vertex="1" parent="1">
          <mxGeometry x="847.25" y="-1046" width="69.5" height="80" as="geometry" />
        </mxCell>
        <mxCell id="8qdUluI_qNk1tddgaQVU-64" value="" style="outlineConnect=0;dashed=0;verticalLabelPosition=bottom;verticalAlign=top;align=center;html=1;shape=mxgraph.aws3.instance;fillColor=#6d8764;sketch=1;curveFitting=1;jiggle=2;fillStyle=zigzag;fontColor=#ffffff;strokeColor=#3A5431;" vertex="1" parent="1">
          <mxGeometry x="847.25" y="-946" width="70" height="70" as="geometry" />
        </mxCell>
        <mxCell id="8qdUluI_qNk1tddgaQVU-79" value="" style="sketch=0;points=[[0,0,0],[0.25,0,0],[0.5,0,0],[0.75,0,0],[1,0,0],[0,1,0],[0.25,1,0],[0.5,1,0],[0.75,1,0],[1,1,0],[0,0.25,0],[0,0.5,0],[0,0.75,0],[1,0.25,0],[1,0.5,0],[1,0.75,0]];gradientDirection=north;outlineConnect=0;fontColor=#232F3E;gradientColor=none;fillColor=#1E262E;strokeColor=#ffffff;dashed=0;verticalLabelPosition=bottom;verticalAlign=top;align=center;html=1;fontSize=12;fontStyle=0;aspect=fixed;shape=mxgraph.aws4.resourceIcon;resIcon=mxgraph.aws4.general;" vertex="1" parent="1">
          <mxGeometry x="563" y="-1200" width="22" height="22" as="geometry" />
        </mxCell>
        <mxCell id="8qdUluI_qNk1tddgaQVU-83" value="&lt;font style=&quot;color: rgb(255, 255, 255);&quot;&gt;Your AWS Account&lt;/font&gt;" style="rounded=0;whiteSpace=wrap;html=1;labelPosition=center;verticalLabelPosition=middle;align=left;verticalAlign=top;horizontal=1;spacingLeft=26;spacingTop=0;spacing=3;fillColor=default;fontColor=#000000;strokeColor=#B09500;sketch=1;curveFitting=1;jiggle=2;strokeWidth=3;" vertex="1" parent="1">
          <mxGeometry x="560" y="-579" width="392" height="360" as="geometry" />
        </mxCell>
        <mxCell id="8qdUluI_qNk1tddgaQVU-84" value="&lt;font&gt;GitHub Actions&lt;/font&gt;" style="rounded=0;whiteSpace=wrap;html=1;labelPosition=center;verticalLabelPosition=middle;align=left;verticalAlign=top;horizontal=1;spacingLeft=26;spacingTop=0;spacing=3;fillColor=default;fontColor=default;strokeColor=#666666;strokeWidth=3;sketch=1;curveFitting=1;jiggle=2;" vertex="1" parent="1">
          <mxGeometry x="320" y="-577" width="163" height="360" as="geometry" />
        </mxCell>
        <mxCell id="8qdUluI_qNk1tddgaQVU-85" style="edgeStyle=orthogonalEdgeStyle;rounded=0;orthogonalLoop=1;jettySize=auto;html=1;endArrow=block;endFill=1;strokeWidth=3;strokeColor=#FF8000;sketch=1;curveFitting=1;jiggle=2;" edge="1" parent="1" target="8qdUluI_qNk1tddgaQVU-92" source="8qdUluI_qNk1tddgaQVU-88">
          <mxGeometry relative="1" as="geometry">
            <mxPoint x="440" y="-382" as="sourcePoint" />
            <mxPoint x="605" y="-290" as="targetPoint" />
            <Array as="points">
              <mxPoint x="740" y="-382" />
              <mxPoint x="740" y="-290" />
            </Array>
          </mxGeometry>
        </mxCell>
        <mxCell id="8qdUluI_qNk1tddgaQVU-86" style="edgeStyle=orthogonalEdgeStyle;rounded=0;orthogonalLoop=1;jettySize=auto;html=1;endArrow=block;endFill=1;strokeWidth=3;strokeColor=#FF8000;sketch=1;curveFitting=1;jiggle=2;" edge="1" parent="1" target="8qdUluI_qNk1tddgaQVU-91" source="8qdUluI_qNk1tddgaQVU-88">
          <mxGeometry relative="1" as="geometry">
            <mxPoint x="440" y="-382" as="sourcePoint" />
            <mxPoint x="605" y="-382" as="targetPoint" />
            <Array as="points">
              <mxPoint x="730" y="-382" />
              <mxPoint x="730" y="-382" />
            </Array>
          </mxGeometry>
        </mxCell>
        <mxCell id="8qdUluI_qNk1tddgaQVU-87" style="edgeStyle=orthogonalEdgeStyle;rounded=0;orthogonalLoop=1;jettySize=auto;html=1;endArrow=block;endFill=1;strokeWidth=3;strokeColor=#FF8000;sketch=1;curveFitting=1;jiggle=2;" edge="1" parent="1" target="8qdUluI_qNk1tddgaQVU-90" source="8qdUluI_qNk1tddgaQVU-88">
          <mxGeometry relative="1" as="geometry">
            <mxPoint x="440" y="-382" as="sourcePoint" />
            <mxPoint x="605" y="-488" as="targetPoint" />
            <Array as="points">
              <mxPoint x="740" y="-382" />
              <mxPoint x="740" y="-488" />
            </Array>
          </mxGeometry>
        </mxCell>
        <mxCell id="8qdUluI_qNk1tddgaQVU-89" value="" style="dashed=0;outlineConnect=0;html=1;align=center;labelPosition=center;verticalLabelPosition=bottom;verticalAlign=top;shape=mxgraph.weblogos.github;strokeColor=none;fillColor=none;fontColor=#FFFFFF;aspect=fixed;" vertex="1" parent="1">
          <mxGeometry x="326" y="-573" width="20" height="20" as="geometry" />
        </mxCell>
        <mxCell id="8qdUluI_qNk1tddgaQVU-90" value="" style="outlineConnect=0;dashed=0;verticalLabelPosition=bottom;verticalAlign=top;align=center;html=1;shape=mxgraph.aws3.bucket;fillColor=#e3c800;sketch=1;curveFitting=1;jiggle=2;strokeColor=#B09500;fontColor=#000000;fillStyle=zigzag;" vertex="1" parent="1">
          <mxGeometry x="841" y="-527" width="80" height="80" as="geometry" />
        </mxCell>
        <mxCell id="8qdUluI_qNk1tddgaQVU-91" value="" style="outlineConnect=0;dashed=0;verticalLabelPosition=bottom;verticalAlign=top;align=center;html=1;shape=mxgraph.aws3.generic_database;fillColor=#7D7C7C;gradientColor=none;sketch=1;curveFitting=1;jiggle=2;fillStyle=zigzag;" vertex="1" parent="1">
          <mxGeometry x="847.25" y="-422" width="69.5" height="80" as="geometry" />
        </mxCell>
        <mxCell id="8qdUluI_qNk1tddgaQVU-92" value="" style="outlineConnect=0;dashed=0;verticalLabelPosition=bottom;verticalAlign=top;align=center;html=1;shape=mxgraph.aws3.instance;fillColor=#6d8764;sketch=1;curveFitting=1;jiggle=2;fillStyle=zigzag;fontColor=#ffffff;strokeColor=#3A5431;" vertex="1" parent="1">
          <mxGeometry x="847.25" y="-322" width="70" height="70" as="geometry" />
        </mxCell>
        <mxCell id="8qdUluI_qNk1tddgaQVU-93" value="" style="sketch=0;points=[[0,0,0],[0.25,0,0],[0.5,0,0],[0.75,0,0],[1,0,0],[0,1,0],[0.25,1,0],[0.5,1,0],[0.75,1,0],[1,1,0],[0,0.25,0],[0,0.5,0],[0,0.75,0],[1,0.25,0],[1,0.5,0],[1,0.75,0]];gradientDirection=north;outlineConnect=0;fontColor=#232F3E;gradientColor=none;fillColor=#1E262E;strokeColor=#ffffff;dashed=0;verticalLabelPosition=bottom;verticalAlign=top;align=center;html=1;fontSize=12;fontStyle=0;aspect=fixed;shape=mxgraph.aws4.resourceIcon;resIcon=mxgraph.aws4.general;" vertex="1" parent="1">
          <mxGeometry x="563" y="-576" width="22" height="22" as="geometry" />
        </mxCell>
        <mxCell id="8qdUluI_qNk1tddgaQVU-88" value="&lt;span&gt;&lt;font style=&quot;font-size: 16px;&quot;&gt;Runner&lt;/font&gt;&lt;/span&gt;" style="outlineConnect=0;dashed=0;verticalLabelPosition=middle;verticalAlign=middle;align=center;html=1;shape=mxgraph.aws3.instance;fillColor=#647687;sketch=1;curveFitting=1;jiggle=2;fillStyle=zigzag;fontColor=#ffffff;strokeColor=#314354;labelPosition=center;fontStyle=1" vertex="1" parent="1">
          <mxGeometry x="600" y="-432" width="90" height="90" as="geometry" />
        </mxCell>
        <mxCell id="8qdUluI_qNk1tddgaQVU-95" value="" style="shape=flexArrow;endArrow=classic;html=1;rounded=0;fillColor=#6666FF;" edge="1" parent="1">
          <mxGeometry width="50" height="50" relative="1" as="geometry">
            <mxPoint x="600" y="-784" as="sourcePoint" />
            <mxPoint x="600" y="-624" as="targetPoint" />
          </mxGeometry>
        </mxCell>
        <mxCell id="8qdUluI_qNk1tddgaQVU-96" value="Sprinters" style="text;html=1;align=center;verticalAlign=middle;whiteSpace=wrap;rounded=0;fontSize=30;rotation=0;" vertex="1" parent="1">
          <mxGeometry x="50" y="-422" width="240" height="80" as="geometry" />
        </mxCell>
        <mxCell id="8qdUluI_qNk1tddgaQVU-97" value="GitHub-hosted Runners" style="text;html=1;align=center;verticalAlign=middle;whiteSpace=wrap;rounded=0;fontSize=30;rotation=0;" vertex="1" parent="1">
          <mxGeometry x="50" y="-1046" width="240" height="80" as="geometry" />
        </mxCell>
      </root>
    </mxGraphModel>
  </diagram>
</mxfile>
